<svg xmlns="http://www.w3.org/2000/svg" viewBox="0 0 734.4 285.3"><path fill="#FFF" d="M22.2 116.4C15 99.6 6.5 95.7.7 93.5h70.1c-5.5 1.4-14 3.8-14 14 0 4.1 1.4 7.7 3 11.5l22.5 61-17 37.9-43.1-101.5zm84.9 0c-6.9-16.2-15.7-20.6-21.4-22.8h69.8c-5.5 1.4-13.8 4.1-13.8 14 0 3.6 1.1 7.2 2.8 11.5l22.8 61-17 37.9-43.2-101.6zm84.2-6.6c0-11.3-7.7-14.6-14.8-16.2h40.1c-7.2 2.2-17 6.9-26.4 23.6.8-2.8 1.1-5.2 1.1-7.4zM420.1 194.7V118c0-11-7.4-20.6-18.1-21.7l53.9-6.9v106.7c0 14.3 7.7 18.1 13.8 19.8h-63.5c6-1.6 13.9-5.8 13.9-21.2zm82.5-.8v-73.7c0-15.1-7.4-23.9-20.3-23.9-4.7 0-10.5 1.1-15.7 3.6 13.2-9.1 28.3-10.4 34.9-10.4 9.1 0 36.6 2.8 36.6 36v70.4c0 14.8 8.2 18.4 14.3 20.1h-61.9c5.2-1.7 12.1-5.9 12.1-22.1zM258.4 115.5c-8-15.7-16.8-19.8-22-22h72.3c-5.5 1.4-13.8 3.8-13.8 13.5 0 2.8 1.1 6.3 3.3 11.5l27.8 61.6-17 37.9-50.6-102.5zM243 264.3c0-9.9 8-17.9 17.6-17.9 9.9 0 17.9 8 17.9 17.9 0 9.6-8 17.6-17.9 17.6-9.7 0-17.6-8-17.6-17.6zm113-154.8c0-11.5-8.8-14.6-14.8-15.9h40.1c-7.2 2.2-17 6.9-26.4 23.6.8-2.8 1.1-5.2 1.1-7.7zM570.8 157.9c0-42.1 24.7-69 61.9-69 3.8 0 10.2.3 17.6 1.7h-4.1c-16.5 0-36 11.8-36 62.4 0 23.9 4.4 61 34.4 61 5.8 0 11.3-1.4 16.2-3.8-9.1 6-18.7 9.6-32.7 9.6-35.3 0-57.3-22.3-57.3-61.9zM676.9 35.2c0-11-7.4-20.4-18.1-21.7l53.9-6.6V195c0 4.4 1.4 8.8 4.1 12.1 3.3 4.1 8.5 6.6 13.8 6.9-18.2 1.1-36 3.6-53.6 7.1V35.2z"/></svg>